<svg id="Layer_1" data-name="Layer 1" xmlns="http://www.w3.org/2000/svg" xmlns:xlink="http://www.w3.org/1999/xlink" viewBox="0 0 647.25 157.95"><defs><style>.cls-1{fill:#2a5e72;}.cls-2{fill:url(#linear-gradient);}.cls-3{fill:url(#linear-gradient-2);}.cls-4{fill:#196178;}</style><linearGradient id="linear-gradient" x1="335.18" y1="317.71" x2="468.35" y2="202" gradientUnits="userSpaceOnUse"><stop offset="0" stop-color="#19779f"/><stop offset="0.59" stop-color="#00b5a5"/><stop offset="1" stop-color="#fff8a3"/></linearGradient><linearGradient id="linear-gradient-2" x1="327.28" y1="332.59" x2="460.45" y2="216.88" gradientTransform="translate(-96.74 -223.94) rotate(-1.1)" xlink:href="#linear-gradient"/></defs><title>Global Color Thicker-s</title><path class="cls-1" d="M102.65,361.88c0,2.22,2.22,2.62,5.83,3.06,4.35.52,8.81,2,8.81,7.6,0,4.13-3.28,7.89-9.66,7.89a17.39,17.39,0,0,1-10-2.76c-.59-.41-.52-.67-.18-1.29l1.29-2.18c.33-.59.62-.77,1.21-.41a13.66,13.66,0,0,0,7.34,2.11c3.14,0,4.95-.92,4.95-3.1,0-2.47-2.29-3-6.09-3.5-4-.48-8.56-2-8.56-7.23,0-3.36,2.47-8.27,9.63-8.27a15.84,15.84,0,0,1,9.07,2.77c.59.37.48.67.19,1.26L115.16,360c-.34.59-.59.81-1.22.44a10.35,10.35,0,0,0-6.38-2.1C103.46,358.34,102.65,360.15,102.65,361.88Z" transform="translate(-97.16 -222.56)"/><path class="cls-1" d="M151.22,369.77v9.37c0,.7-.19.89-.89.89h-3.46c-.7,0-.89-.19-.89-.89v-24c0-.71.22-.89.89-.89h9.07c4.28,0,9.33,1.77,9.33,7.75s-5.05,7.81-9.33,7.81Zm4.54-4.38c3.2,0,4.42-1.29,4.42-3.43s-1.22-3.4-4.42-3.4h-4.54v6.83Z" transform="translate(-97.16 -222.56)"/><path class="cls-1" d="M214.61,379.14a.59.59,0,0,1-.55.89H210c-.59,0-.78-.19-1.15-.89l-2.17-4.42h-11l-2.22,4.42c-.33.7-.55.89-1.14.89h-4.09a.61.61,0,0,1-.56-.89l12.73-24.56c.29-.55.4-.89.7-.89h.11c.29,0,.4.34.74.89Zm-13.5-16.63-3.68,7.74h7.45l-3.69-7.74Z" transform="translate(-97.16 -222.56)"/><path class="cls-1" d="M259.71,373.17c.48-.48.78-.41,1.22.11l2,2.18c.48.51.59.77.08,1.25a14.31,14.31,0,0,1-9.67,3.8,13.39,13.39,0,0,1,0-26.78,14.31,14.31,0,0,1,9.67,3.8c.51.48.4.74-.08,1.25l-2,2.18c-.44.48-.78.59-1.25.11a8.53,8.53,0,0,0-6.35-2.8c-4.87,0-7.93,4.39-7.93,8.85s3.06,8.85,7.93,8.85A8.5,8.5,0,0,0,259.71,373.17Z" transform="translate(-97.16 -222.56)"/><path class="cls-1" d="M292.42,380c-.66,0-.89-.19-.89-.89v-24c0-.67.23-.89.89-.89h16.67c.7,0,.89.22.89.89v2.69c0,.66-.19.88-.89.88H296.77v6.13h11.8c.7,0,.89.22.89.88v2.69c0,.7-.19.89-.89.89h-11.8v6.31h12.32c.7,0,.89.22.89.88v2.69c0,.7-.19.89-.89.89Z" transform="translate(-97.16 -222.56)"/><path class="cls-1" d="M373.21,380c-.66,0-.88-.19-.88-.89v-24c0-.67.22-.89.88-.89h16.68c.7,0,.88.22.88.89v2.69c0,.66-.18.88-.88.88H377.57v6.13h11.8c.7,0,.88.22.88.88v2.69c0,.7-.18.89-.88.89h-11.8v6.31h12.32c.7,0,.88.22.88.88v2.69c0,.7-.18.89-.88.89Z" transform="translate(-97.16 -222.56)"/><path class="cls-1" d="M423.66,379.14c-.48.67-.66.89-1.29.89h-4.06c-.62,0-.92-.22-.48-.89l8.82-11.87-8.89-12.17c-.48-.67-.22-.89.41-.89h4.09c.59,0,.85.22,1.29.89l5.83,8,5.79-8c.52-.71.74-.89,1.33-.89h4.05c.63,0,.93.18.45.89l-8.86,12.17,8.78,11.87c.48.67.22.89-.4.89h-4.1c-.59,0-.81-.19-1.32-.89l-5.72-7.74Z" transform="translate(-97.16 -222.56)"/><path class="cls-1" d="M486.83,373.17c.48-.48.78-.41,1.22.11l2,2.18c.48.51.59.77.08,1.25a14.29,14.29,0,0,1-9.67,3.8,13.39,13.39,0,0,1,0-26.78,14.29,14.29,0,0,1,9.67,3.8c.51.48.4.74-.08,1.25l-2,2.18c-.44.48-.77.59-1.25.11a8.51,8.51,0,0,0-6.35-2.8c-4.87,0-7.93,4.39-7.93,8.85s3.06,8.85,7.93,8.85A8.49,8.49,0,0,0,486.83,373.17Z" transform="translate(-97.16 -222.56)"/><path class="cls-1" d="M535.4,355.1c0-.71.18-.89.89-.89h3.46c.7,0,.89.18.89.89v24c0,.7-.19.89-.89.89h-3.46c-.71,0-.89-.19-.89-.89v-9.66H524v9.66c0,.7-.19.89-.89.89h-3.47c-.7,0-.88-.19-.88-.89v-24c0-.71.18-.89.88-.89h3.47c.7,0,.89.18.89.89v9.84H535.4Z" transform="translate(-97.16 -222.56)"/><path class="cls-1" d="M594.81,379.14a.59.59,0,0,1-.55.89h-4.1c-.59,0-.77-.19-1.14-.89l-2.18-4.42h-11l-2.21,4.42c-.33.7-.55.89-1.14.89h-4.1a.6.6,0,0,1-.55-.89l12.72-24.56c.3-.55.41-.89.7-.89h.11c.3,0,.41.34.74.89Zm-13.5-16.63-3.69,7.74h7.45l-3.69-7.74Z" transform="translate(-97.16 -222.56)"/><path class="cls-1" d="M627.26,379.14c0,.7-.22.89-.89.89H622.9c-.7,0-.88-.19-.88-.89V354.06c0-.26.07-.33.33-.33h.33a1,1,0,0,1,.63.3l16,15.74V355.1c0-.71.19-.89.89-.89h3.43c.7,0,.92.18.92.89v25.08c0,.25-.07.33-.33.33h-.33a1,1,0,0,1-.67-.33l-16-15.86Z" transform="translate(-97.16 -222.56)"/><path class="cls-1" d="M678.48,367.12c0,4.39,3.06,8.85,7.93,8.85a9.12,9.12,0,0,0,5.27-1.69V370.4h-4.42c-.67,0-.89-.22-.89-.92v-2.65c0-.71.19-.89.89-.89H696c.71,0,.89.18.89.89v8.48a1.66,1.66,0,0,1-.59,1.33,14.73,14.73,0,0,1-9.92,3.87,13.39,13.39,0,0,1,0-26.78,14.34,14.34,0,0,1,9.66,3.8c.48.48.37.74-.11,1.25L694,361c-.44.48-.74.59-1.26.07a8.7,8.7,0,0,0-6.3-2.76C681.54,358.27,678.48,362.66,678.48,367.12Z" transform="translate(-97.16 -222.56)"/><path class="cls-1" d="M726.82,380c-.66,0-.88-.19-.88-.89v-24c0-.67.22-.89.88-.89h16.67c.7,0,.89.22.89.89v2.69c0,.66-.19.88-.89.88H731.17v6.13H743c.7,0,.88.22.88.88v2.69c0,.7-.18.89-.88.89H731.17v6.31h12.32c.7,0,.89.22.89.88v2.69c0,.7-.19.89-.89.89Z" transform="translate(-97.16 -222.56)"/><path class="cls-2" d="M411.87,236.78c-27.06-21.71-66-18.16-86.89,7.93a59.3,59.3,0,0,0-12.32,45.74c-1.87,1.83-3.76,3.7-5.46,5.38-4.16,4.6-8.85,11.13-6.51,15.31,3.76,6.76,30.07,1.55,75.94-25.07-2.67.88-16.63,5.37-25.34,6.62-5.45.79-7.48-1.8-8.08-3.13a43.73,43.73,0,0,1,7.35-40.65c15.29-19,43.68-21.64,63.43-5.79s23.36,44.13,8.08,63.17c-14.92,18.59-42.28,21.47-61.94,6.87-1.77-1.78-2.35-5-1.15-6.91a88.23,88.23,0,0,1,9.85-12.07c-11,7.89-23,17.81-29.72,25.64-3.51,4.1-3.32,11.16,3.5,16,26.47,16.39,61,11.54,80.32-12.51C443.86,297.23,438.91,258.48,411.87,236.78Z" transform="translate(-97.16 -222.56)"/><polygon class="cls-3" points="283.18 74.81 310.17 46.65 277.18 51.7 277.25 56.65 268.14 59.71 275.68 61.88 294.63 56.29 283.66 65.86 283.18 74.81"/><path class="cls-4" d="M174,258.59h-58.1v50.6H174V291.41H143.61V277.8H192.1v27.53q0,11-4.09,14.94t-15.73,4H117.13q-11.65,0-15.73-4t-4.09-14.94V263.2q0-10.9,4.09-14.91t15.73-4h55.15q11.49,0,15.66,3.93t4.16,14.22v1.82L174,267.51Z" transform="translate(-97.16 -222.56)"/><path class="cls-4" d="M210.33,324.25v-80h18.61v64.9h60v15.06Z" transform="translate(-97.16 -222.56)"/><path class="cls-4" d="M447.72,324.25v-80h68.54q9.45,0,13.69,3.7t4.24,11.8v9.76a12.19,12.19,0,0,1-3.56,9.19q-3.55,3.45-10.21,4.28c4.59.6,8.13,2.25,10.63,4.91a14.74,14.74,0,0,1,3.74,10.45v10.2q0,7.95-5.82,11.81t-17.7,3.86Zm60.74-66.95H466v19.06h42.43c3.23,0,5.47-.43,6.7-1.29s1.85-2.34,1.85-4.46v-7.56c0-2.07-.61-3.55-1.85-4.43S511.69,257.3,508.46,257.3Zm0,32.22H466v20.35h42.43q5.31,0,7.15-1.59t1.86-5.59v-6.05c0-2.68-.62-4.53-1.86-5.57S512,289.52,508.46,289.52Z" transform="translate(-97.16 -222.56)"/><path class="cls-4" d="M543.33,324.25l45.24-80H606.5l45.84,80H631.46l-9.61-17.48H571.17l-9.3,17.48Zm35.79-31.93h35l-17.25-32.53Z" transform="translate(-97.16 -222.56)"/><path class="cls-4" d="M665.82,324.25v-80h18.61v64.9h60v15.06Z" transform="translate(-97.16 -222.56)"/></svg>